PathFileType	4	(x/y/z)	A01_FAST_T0024.trc
DataRate	CameraRate	NumFrames	NumMarkers	Units	OrigDataRate	OrigDataStartFrame	OrigNumFrames
240	240	9	48	mm	240	37	290
Frame#	Time	TOP_HEAD			R_AC			L_AC			R_ASIS			L_ASIS			R_PSIS			L_PSIS			SACRAL			L_IC			R_IC			L_GT			R_GT			R_LAT_KNEE			R_MED_KNEE			L_MED_KNEE			L_LAT_KNEE			R_TOE			L_TOE			R_1ST_MET			L_1ST_MET			L_5TH_MET			R_5TH_MET			R_LAT_ANK			R_MED_ANK			L_MED_ANK			L_LAT_ANK			L_HEEL_SUP			R_HEEL_SUP			L_HEEL_LAT			R_HEEL_LAT			L_HEEL_MED			R_HEEL_MED			R_LL_PROX_POST			R_LL_PROX_ANT			R_LL_DIST_ANT			R_LL_DIST_POST			R_THIGH_PROX_POST			R_THIGH_PROX_ANT			R_THIGH_DIST_ANT			R_THIGH_DIST_POST			L_PROS_PROX_ANT			L_PROS_PROX_POST			L_PROS_DIST_POST			L_PROS_DIST_ANT			L_THIGH_PROX_ANT			L_THIGH_PROX_POST			L_THIGH_DIST_POST			L_THIGH_DIST_ANT			
		X1	Y1	Z1	X2	Y2	Z2	X3	Y3	Z3	X4	Y4	Z4	X5	Y5	Z5	X6	Y6	Z6	X7	Y7	Z7	X8	Y8	Z8	X9	Y9	Z9	X10	Y10	Z10	X11	Y11	Z11	X12	Y12	Z12	X13	Y13	Z13	X14	Y14	Z14	X15	Y15	Z15	X16	Y16	Z16	X17	Y17	Z17	X18	Y18	Z18	X19	Y19	Z19	X20	Y20	Z20	X21	Y21	Z21	X22	Y22	Z22	X23	Y23	Z23	X24	Y24	Z24	X25	Y25	Z25	X26	Y26	Z26	X27	Y27	Z27	X28	Y28	Z28	X29	Y29	Z29	X30	Y30	Z30	X31	Y31	Z31	X32	Y32	Z32	X33	Y33	Z33	X34	Y34	Z34	X35	Y35	Z35	X36	Y36	Z36	X37	Y37	Z37	X38	Y38	Z38	X39	Y39	Z39	X40	Y40	Z40	X41	Y41	Z41	X42	Y42	Z42	X43	Y43	Z43	X44	Y44	Z44	X45	Y45	Z45	X46	Y46	Z46	X47	Y47	Z47	X48	Y48	Z48	

37	0.15052	-389.34	1723	252.98	-606.76	1540.5	508.39	-671.53	1514.1	53.895	-654.14	1061.8	519.98	-618.88	1003.7	171.8	-856.56	1073.8	371.01	-837.8	1062.1	241.86	-865.11	1039	305	-653.41	1121.6	119.23	-675.22	1182	511.45	-668.14	921.94	127.97	-742.72	960.66	553.63	-859.21	572.28	489.54	NaN	NaN	NaN	-518.44	561.59	365.73	-536.4	565.03	206.43	-1050.3	57.281	358.24	-234.02	114.05	265.71	-1117.7	64.798	312.8	-311	76.026	318.89	-335.27	64.117	189.52	-1142.1	60.025	449.19	-1149	197.06	441.64	-1131.5	206.85	341.36	-453.9	127.03	298.9	-479.22	113.23	230.09	-554.66	62.947	267.56	-1231.1	255.19	381.13	-537.46	36.84	236.94	-1248.3	233.01	413.02	-529.67	35.522	301.4	-1245	235.29	352.39	-1032.9	481.15	471.15	-984.5	434.2	499.24	-1023.1	371.14	479.82	-1064.5	404.41	461.48	-819.07	835.49	522.94	-748.07	836.55	537.83	-767.06	747.09	529.08	-833.86	747.46	512.16	-472.09	495.78	220.66	-525.01	481.93	208.01	-516.02	420.1	215.53	-466.69	439.84	227.06	-564.98	808.73	177.47	-630.35	791.26	152.33	-598.09	724	169.98	-538.33	740.85	191.98
38	0.1547	-381.94	1723.2	252.02	-599.79	1541.6	507.37	-663.9	1514	52.846	-647.31	1062.3	519.72	-612.58	1004.6	171.44	-849.96	1074.3	371.65	-831.43	1063	242.38	-858.55	1039.7	305.6	-646.17	1121.9	119.1	-668.22	1183	511.1	-662.22	922.91	127.87	-735.41	960.76	553.55	-848.67	571.35	490.61	NaN	NaN	NaN	-512.58	562.05	365.24	-530.55	565.56	205.97	-1048.7	56.244	358.56	-233.26	111.99	265.57	-1115	66.796	313.04	-310.51	74.585	318.83	-334.92	62.872	189.41	-1140	62.244	449.19	-1142.6	199.87	442.38	-1124.4	209.45	342.16	-452.73	126.73	298.76	-478.29	113.13	229.98	-554.34	63.311	267.54	-1222.3	260.63	381.75	-537.31	37.147	236.91	-1240.4	238.97	413.6	-529.55	35.776	301.36	-1237	241.45	352.99	-1023	482.32	471.65	-975.32	434.83	500.16	-1014.6	372.23	480.63	-1055.5	405.98	461.96	-810.86	834.58	523.27	-739.84	836.4	537.89	-757.96	746.73	529.45	-824.8	746.4	512.67	-467.01	495.62	220.24	-520.06	482.34	207.6	-511.74	420.41	215.19	-462.21	439.64	226.64	-559.13	809.33	176.88	-624.71	792.01	152.26	-592.51	724.67	169.79	-532.54	741.41	191.32
39	0.15888	-374.6	1723.4	251.08	-592.82	1542.7	506.37	-656.27	1514.1	51.834	-640.49	1062.8	519.44	-606.32	1005.6	171.06	-843.38	1074.8	372.29	-825.09	1064	242.91	-852.01	1040.4	306.22	-639.08	1122.3	118.96	-661.26	1184.1	510.75	-656.35	923.91	127.76	-728.07	960.91	553.46	-837.94	570.43	491.73	NaN	NaN	NaN	-506.84	562.48	364.67	-524.84	566.04	205.44	-1047	55.126	358.92	-232.55	110.01	265.42	-1112	68.964	313.35	-310.04	73.207	318.76	-334.58	61.677	189.28	-1137.6	64.691	449.21	-1135.9	202.84	443.13	-1117.1	212.18	342.96	-451.59	126.46	298.6	-477.38	113.04	229.86	-554.01	63.663	267.54	-1213.2	266.18	382.41	-537.16	37.446	236.88	-1232.2	245.05	414.2	-529.41	36.026	301.33	-1228.8	247.73	353.62	-1012.8	483.53	472.2	-965.92	435.49	501.13	-1005.9	373.37	481.47	-1046.2	407.62	462.48	-802.58	833.68	523.65	-731.53	836.29	537.98	-748.76	746.42	529.86	-815.62	745.34	513.23	-462.06	495.43	219.74	-515.23	482.69	207.13	-507.56	420.7	214.8	-457.84	439.42	226.14	-553.35	809.9	176.23	-619.14	792.75	152.14	-587.03	725.33	169.54	-526.86	741.93	190.59
40	0.16306	-367.31	1723.7	250.16	-585.86	1543.9	505.38	-648.64	1514.3	50.861	-633.68	1063.4	519.15	-600.1	1006.6	170.64	-836.83	1075.4	372.92	-818.78	1064.9	243.44	-845.5	1041.1	306.84	-632.12	1122.7	118.81	-654.34	1185.1	510.41	-650.51	924.93	127.64	-720.72	961.1	553.38	-827.03	569.53	492.89	NaN	NaN	NaN	-501.21	562.89	364.03	-519.27	566.46	204.84	-1045.1	53.931	359.33	-231.86	108.11	265.24	-1108.7	71.292	313.71	-309.58	71.886	318.67	-334.27	60.525	189.14	-1134.9	67.367	449.25	-1129	205.95	443.9	-1109.6	215.04	343.77	-450.47	126.21	298.42	-476.49	112.96	229.74	-553.68	64.006	267.54	-1203.8	271.83	383.1	-536.99	37.737	236.86	-1223.6	251.23	414.83	-529.26	36.27	301.3	-1220.1	254.1	354.26	-1002.3	484.78	472.81	-956.31	436.19	502.15	-996.9	374.57	482.34	-1036.7	409.31	463.05	-794.22	832.8	524.06	-723.17	836.23	538.11	-739.46	746.15	530.31	-806.34	744.31	513.84	-457.23	495.21	219.17	-510.51	483.01	206.59	-503.49	420.94	214.35	-453.59	439.17	225.59	-547.64	810.43	175.52	-613.63	793.48	151.97	-581.64	725.97	169.23	-521.26	742.4	189.79
41	0.16724	-360.07	1724	249.27	-578.92	1545.1	504.43	-641.02	1514.5	49.928	-626.89	1064	518.84	-593.91	1007.6	170.22	-830.3	1075.9	373.55	-812.49	1065.8	243.96	-839	1041.8	307.45	-625.29	1123.2	118.65	-647.46	1186.2	510.08	-644.7	925.95	127.49	-713.35	961.34	553.3	-815.97	568.66	494.09	NaN	NaN	NaN	-495.71	563.27	363.32	-513.83	566.82	204.18	-1043	52.669	359.8	-231.21	106.26	265.06	-1105	73.77	314.15	-309.14	70.619	318.58	-333.97	59.414	189	-1131.9	70.27	449.33	-1121.9	209.22	444.67	-1101.9	218.02	344.59	-449.38	125.99	298.23	-475.63	112.88	229.62	-553.35	64.34	267.55	-1194.2	277.55	383.8	-536.82	38.02	236.84	-1214.8	257.48	415.47	-529.1	36.51	301.27	-1211.2	260.53	354.91	-991.7	486.07	473.47	-946.48	436.93	503.2	-987.72	375.83	483.24	-1027	411.06	463.65	-785.79	831.95	524.51	-714.74	836.21	538.27	-730.07	745.93	530.79	-796.96	743.31	514.49	-452.52	494.96	218.54	-505.92	483.28	206	-499.52	421.15	213.85	-449.44	438.9	224.97	-541.99	810.91	174.74	-608.19	794.19	151.74	-576.35	726.57	168.86	-515.76	742.81	188.93
42	0.17142	-352.9	1724.3	248.4	-572	1546.3	503.49	-633.42	1514.8	49.036	-620.13	1064.7	518.53	-587.74	1008.7	169.77	-823.79	1076.5	374.15	-806.22	1066.7	244.45	-832.52	1042.4	308.05	-618.59	1123.7	118.49	-640.62	1187.3	509.76	-638.91	926.98	127.33	-705.96	961.61	553.22	-804.77	567.81	495.32	NaN	NaN	NaN	-490.32	563.61	362.56	-508.54	567.12	203.47	-1040.6	51.35	360.32	-230.58	104.48	264.86	-1100.9	76.382	314.65	-308.71	69.4	318.48	-333.67	58.34	188.86	-1128.6	73.393	449.43	-1114.5	212.63	445.44	-1093.9	221.11	345.4	-448.31	125.8	298.03	-474.79	112.81	229.49	-553.01	64.668	267.57	-1184.2	283.32	384.51	-536.64	38.296	236.82	-1205.6	263.78	416.12	-528.93	36.746	301.25	-1201.9	266.99	355.56	-980.85	487.4	474.18	-936.45	437.72	504.28	-978.33	377.14	484.14	-1017	412.85	464.29	-777.29	831.12	525	-706.26	836.23	538.46	-720.59	745.76	531.31	-787.5	742.34	515.19	-447.94	494.68	217.86	-501.44	483.52	205.36	-495.65	421.33	213.31	-445.4	438.61	224.31	-536.39	811.35	173.92	-602.81	794.89	151.47	-571.13	727.15	168.43	-510.35	743.17	188
43	0.17561	-345.78	1724.6	247.56	-565.11	1547.5	502.59	-625.83	1515.2	48.186	-613.38	1065.4	518.2	-581.59	1009.7	169.32	-817.29	1077	374.71	-799.97	1067.6	244.91	-826.04	1043.1	308.61	-611.99	1124.2	118.31	-633.84	1188.4	509.45	-633.13	927.99	127.15	-698.57	961.93	553.14	-793.43	567.01	496.58	NaN	NaN	NaN	-485.06	563.93	361.74	-503.39	567.37	202.7	-1038	49.988	360.9	-229.97	102.75	264.66	-1096.5	79.113	315.22	-308.29	68.231	318.38	-333.39	57.305	188.71	-1124.9	76.724	449.58	-1106.9	216.17	446.2	-1085.7	224.3	346.2	-447.27	125.62	297.82	-473.98	112.75	229.36	-552.67	64.99	267.59	-1174.1	289.12	385.22	-536.46	38.565	236.81	-1196.2	270.1	416.76	-528.75	36.976	301.24	-1192.3	273.44	356.18	-969.82	488.76	474.92	-926.23	438.55	505.38	-968.73	378.51	485.05	-1006.9	414.7	464.96	-768.72	830.33	525.51	-697.74	836.29	538.67	-711.04	745.64	531.86	-777.95	741.41	515.92	-443.47	494.38	217.13	-497.08	483.71	204.68	-491.88	421.47	212.73	-441.47	438.3	223.61	-530.84	811.74	173.03	-597.48	795.57	151.14	-566	727.7	167.95	-505.01	743.47	187.03
44	0.17979	-338.73	1725	246.76	-558.26	1548.7	501.72	-618.26	1515.6	47.379	-606.65	1066.1	517.87	-575.46	1010.7	168.87	-810.81	1077.5	375.23	-793.72	1068.5	245.33	-819.58	1043.7	309.14	-605.48	1124.7	118.12	-627.11	1189.5	509.15	-627.37	928.99	126.94	-691.16	962.28	553.06	-781.96	566.24	497.87	NaN	NaN	NaN	-479.91	564.22	360.88	-498.36	567.58	201.9	-1035	48.602	361.55	-229.39	101.08	264.47	-1091.7	81.945	315.86	-307.88	67.111	318.27	-333.12	56.308	188.56	-1120.8	80.249	449.77	-1099.1	219.83	446.95	-1077.4	227.58	346.98	-446.26	125.47	297.6	-473.2	112.69	229.23	-552.33	65.305	267.61	-1163.7	294.91	385.91	-536.27	38.828	236.81	-1186.5	276.41	417.38	-528.57	37.201	301.23	-1182.5	279.86	356.78	-958.6	490.16	475.7	-915.82	439.43	506.49	-958.95	379.93	485.97	-996.58	416.59	465.66	-760.09	829.57	526.06	-689.16	836.4	538.91	-701.43	745.57	532.44	-768.32	740.52	516.69	-439.12	494.05	216.35	-492.83	483.87	203.96	-488.21	421.59	212.12	-437.65	437.96	222.88	-525.34	812.08	172.11	-592.19	796.22	150.78	-560.95	728.21	167.43	-499.75	743.71	186.01
45	0.18397	-331.73	1725.4	246	-551.46	1549.9	500.9	-610.72	1516.1	46.613	-599.96	1066.9	517.53	-569.33	1011.7	168.41	-804.33	1077.9	375.7	-787.48	1069.3	245.7	-813.11	1044.3	309.61	-599.05	1125.2	117.93	-620.44	1190.5	508.85	-621.6	929.97	126.72	-683.76	962.66	552.97	-770.39	565.53	499.17	NaN	NaN	NaN	-474.88	564.48	359.99	-493.47	567.73	201.06	-1031.8	47.215	362.26	-228.83	99.473	264.27	-1086.4	84.857	316.58	-307.48	66.044	318.17	-332.86	55.352	188.42	-1116.2	83.949	450.01	-1091	223.6	447.67	-1068.8	230.95	347.73	-445.28	125.34	297.38	-472.44	112.63	229.11	-552	65.612	267.63	-1153.2	300.66	386.56	-536.09	39.082	236.8	-1176.6	282.67	417.97	-528.39	37.422	301.22	-1172.5	286.19	357.34	-947.22	491.6	476.51	-905.24	440.35	507.62	-948.98	381.39	486.88	-986.07	418.53	466.38	-751.4	828.86	526.63	-680.54	836.55	539.18	-691.75	745.56	533.04	-758.63	739.68	517.49	-434.89	493.7	215.55	-488.69	484	203.21	-484.63	421.68	211.47	-433.92	437.61	222.13	-519.87	812.37	171.15	-586.95	796.86	150.38	-555.96	728.69	166.87	-494.55	743.89	184.95
